<svg xmlns="http://www.w3.org/2000/svg" viewBox="0 0 55.342 55.342">
  <path d="M18.246 5.023c-1.657 0-3 1.343-3 3v4.072L5.121 1.971C3.95.8 2.05.8.878 1.971c-1.171 1.171-1.171 3.071 0 4.243l9.882 9.881H7.173c-1.657 0-3 1.343-3 3s1.343 3 3 3h10.83c.197 0 .394-.021.587-.059.088-.018.169-.051.254-.076.103-.03.207-.054.306-.095.1-.042.189-.098.283-.149.078-.042.159-.077.233-.126.162-.108.312-.23.449-.367.002-.003.006-.004.008-.007.006-.006.009-.013.015-.019.034-.035.061-.077.094-.114.616-.55 1.011-1.341 1.011-2.231V8.022c.003-1.655-1.34-2.999-2.997-2.999zM20.235 34.257c-.17-.19-.355-.365-.568-.507-.072-.048-.149-.081-.224-.122-.097-.053-.189-.111-.292-.153-.099-.041-.201-.064-.302-.094-.086-.025-.168-.059-.258-.076-.194-.039-.391-.06-.587-.06H7.174c-1.657 0-3 1.343-3 3s1.343 3 3 3h3.588L.879 49.128c-1.172 1.171-1.172 3.071 0 4.242.585.586 1.354.879 2.121.879s1.536-.293 2.121-.879l10.125-10.125v4.072c0 1.657 1.343 3 3 3s3-1.343 3-3v-10.83c0-.89-.395-1.681-1.011-2.23zM54.463 49.128l-9.883-9.883h3.588c1.657 0 3-1.343 3-3s-1.343-3-3-3h-10.83c-.196 0-.394.021-.587.06-.093.018-.179.052-.268.079-.098.029-.197.051-.292.09-.108.045-.207.106-.309.163-.068.038-.141.068-.207.112-.213.142-.399.316-.569.508-.615.549-1.011 1.34-1.011 2.23v10.83c0 1.657 1.343 3 3 3s3-1.343 3-3v-4.072L50.221 53.37c.586.586 1.354.879 2.121.879s1.535-.293 2.121-.879c1.172-1.171 1.172-3.071 0-4.242zM34.986 21.086c.169.19.355.365.568.507.068.046.142.077.213.116.1.056.196.115.303.16.097.04.196.063.296.092.088.026.172.06.264.078.193.039.39.059.587.059h10.83c1.657 0 3-1.343 3-3s-1.343-3-3-3h-3.588l9.883-9.883c1.172-1.171 1.172-3.071 0-4.242-1.172-1.172-3.07-1.172-4.242 0L39.975 12.098V8.026c0-1.657-1.343-3-3-3s-3 1.343-3 3v10.83c0 .89.395 1.681 1.011 2.23z"/>
</svg>
