<svg xmlns="http://www.w3.org/2000/svg" style="isolation:isolate" viewBox="0 0 28 36.068">
  <defs>
    <clipPath id="a">
      <path d="M0 0h28v36.068H0z"/>
    </clipPath>
  </defs>
  <g clip-path="url(#a)">
    <path fill-rule="evenodd" d="M12.167 35.523c.028.038.059.073.093.107.28.28.66.44 1.06.44s.78-.16 1.06-.44c.019-.019.037-.038.053-.06.02-.014.039-.032.057-.05l13.07-13.07c.28-.28.44-.67.44-1.06 0-.4-.16-.78-.44-1.06-.28-.29-.66-.44-1.06-.44s-.78.15-1.06.44L14.82 30.942V1.5c0-.4-.16-.78-.44-1.06S13.72 0 13.32 0s-.78.16-1.06.44-.44.66-.44 1.06v29.45l-9.26-9.26c-.28-.28-.66-.44-1.06-.44s-.78.16-1.06.44-.44.66-.44 1.06.16.78.44 1.06l11.62 11.62c.034.034.069.065.107.093z"/>
  </g>
</svg>
